<svg width="24" height="24" viewBox="0 0 24 24" fill="none" xmlns="http://www.w3.org/2000/svg">
<path d="M5.75 2.25C3.817 2.25 2.25 3.817 2.25 5.75V14.25C2.25 15.9256 3.42741 17.3261 5 17.6695V16.1046C4.26704 15.8079 3.75 15.0893 3.75 14.25V5.75C3.75 4.64543 4.64543 3.75 5.75 3.75H14.25C15.0893 3.75 15.8079 4.26704 16.1046 5H17.6695C17.3261 3.42741 15.9256 2.25 14.25 2.25H5.75Z" fill="black"/>
<path fill-rule="evenodd" clip-rule="evenodd" d="M6.25 9.75C6.25 7.817 7.817 6.25 9.75 6.25H18.25C20.183 6.25 21.75 7.817 21.75 9.75V18.25C21.75 20.183 20.183 21.75 18.25 21.75H9.75C7.817 21.75 6.25 20.183 6.25 18.25V9.75ZM7.75 9.75C7.75 8.64543 8.64543 7.75 9.75 7.75H18.25C19.3546 7.75 20.25 8.64543 20.25 9.75V18.25C20.25 19.3546 19.3546 20.25 18.25 20.25H9.75C8.64543 20.25 7.75 19.3546 7.75 18.25V9.75Z" fill="black"/>
</svg>
